<svg xmlns="http://www.w3.org/2000/svg" xmlns:xlink="http://www.w3.org/1999/xlink" width="500" zoomAndPan="magnify" viewBox="0 0 375 374.999991" height="500" preserveAspectRatio="xMidYMid meet" version="1.0"><defs><g/><clipPath id="5a4b33df34"><path d="M 130.828125 152.949219 L 196.933594 152.949219 L 196.933594 219.058594 L 130.828125 219.058594 Z M 130.828125 152.949219 " clip-rule="nonzero"/></clipPath><clipPath id="7cc87f1540"><path d="M 37.5 182.433594 L 60.292969 182.433594 L 60.292969 219.050781 L 37.5 219.050781 Z M 37.5 182.433594 " clip-rule="nonzero"/></clipPath><clipPath id="1a99c1ffa1"><path d="M 196.933594 116.714844 L 261.84375 116.714844 L 261.84375 152.949219 L 196.933594 152.949219 Z M 196.933594 116.714844 " clip-rule="nonzero"/></clipPath><clipPath id="14c32b8de3"><path d="M 89.78125 111.902344 L 130.828125 111.902344 L 130.828125 152.945312 L 89.78125 152.945312 Z M 89.78125 111.902344 " clip-rule="nonzero"/></clipPath><clipPath id="cbb7099cda"><path d="M 89.78125 182.4375 L 110.304688 182.4375 L 110.304688 202.960938 L 89.78125 202.960938 Z M 89.78125 182.4375 " clip-rule="nonzero"/></clipPath><clipPath id="2cf2703ada"><path d="M 60.292969 111.90625 L 80.8125 111.90625 L 80.8125 132.425781 L 60.292969 132.425781 Z M 60.292969 111.90625 " clip-rule="nonzero"/></clipPath><clipPath id="4233563376"><path d="M 60.292969 152.945312 L 89.78125 152.945312 L 89.78125 182.4375 L 60.292969 182.4375 Z M 60.292969 152.945312 " clip-rule="nonzero"/></clipPath><clipPath id="4f9393bb03"><path d="M 39.769531 132.425781 L 60.292969 132.425781 L 60.292969 152.949219 L 39.769531 152.949219 Z M 39.769531 132.425781 " clip-rule="nonzero"/></clipPath><clipPath id="a98e98f580"><path d="M 89.78125 219.054688 L 130.828125 219.054688 L 130.828125 260.097656 L 89.78125 260.097656 Z M 89.78125 219.054688 " clip-rule="nonzero"/></clipPath></defs><g clip-path="url(#5a4b33df34)"><path fill="#009fb7" d="M 130.828125 219.058594 L 130.828125 152.949219 L 196.933594 152.949219 L 196.933594 219.058594 Z M 130.828125 219.058594 " fill-opacity="1" fill-rule="nonzero"/></g><g clip-path="url(#7cc87f1540)"><path fill="#0a4d58" d="M 37.5 219.050781 L 37.5 182.457031 L 60.292969 182.457031 L 60.292969 219.050781 Z M 37.5 219.050781 " fill-opacity="1" fill-rule="nonzero"/></g><g clip-path="url(#1a99c1ffa1)"><path fill="#0a3036" d="M 196.933594 152.949219 L 196.933594 116.714844 L 261.902344 116.714844 L 261.902344 152.949219 Z M 196.933594 152.949219 " fill-opacity="1" fill-rule="nonzero"/></g><g clip-path="url(#14c32b8de3)"><path fill="#0a4d58" d="M 89.78125 152.945312 L 89.78125 111.902344 L 130.828125 111.902344 L 130.828125 152.945312 Z M 89.78125 152.945312 " fill-opacity="1" fill-rule="nonzero"/></g><g clip-path="url(#cbb7099cda)"><path fill="#009fb7" d="M 89.78125 202.960938 L 89.78125 182.4375 L 110.304688 182.4375 L 110.304688 202.960938 Z M 89.78125 202.960938 " fill-opacity="1" fill-rule="nonzero"/></g><g clip-path="url(#2cf2703ada)"><path fill="#08b8d2" d="M 60.292969 132.425781 L 60.292969 111.90625 L 80.8125 111.90625 L 80.8125 132.425781 Z M 60.292969 132.425781 " fill-opacity="1" fill-rule="nonzero"/></g><g clip-path="url(#4233563376)"><path fill="#08b8d2" d="M 60.292969 182.4375 L 60.292969 152.945312 L 89.78125 152.945312 L 89.78125 182.4375 Z M 60.292969 182.4375 " fill-opacity="1" fill-rule="nonzero"/></g><g clip-path="url(#4f9393bb03)"><path fill="#009fb7" d="M 39.769531 152.949219 L 39.769531 132.425781 L 60.292969 132.425781 L 60.292969 152.949219 Z M 39.769531 152.949219 " fill-opacity="1" fill-rule="nonzero"/></g><g clip-path="url(#a98e98f580)"><path fill="#057d8f" d="M 89.78125 260.097656 L 89.78125 219.054688 L 130.828125 219.054688 L 130.828125 260.097656 Z M 89.78125 260.097656 " fill-opacity="1" fill-rule="nonzero"/></g><g fill="#009fb7" fill-opacity="1"><g transform="translate(213.735312, 261.513202)"><g><path d="M 110.53125 -102.53125 L 110.53125 0 L 86.828125 0 L 86.828125 -61.484375 L 69.328125 -19.625 L 48.734375 -19.625 L 31.5625 -61.484375 L 31.5625 0 L 7.84375 0 L 7.84375 -102.53125 L 38.75 -102.53125 L 59.515625 -50.859375 L 80.78125 -102.53125 Z M 110.53125 -102.53125 "/></g></g></g></svg>