<svg xmlns="http://www.w3.org/2000/svg" xmlns:xlink="http://www.w3.org/1999/xlink" width="1640" zoomAndPan="magnify" viewBox="0 0 1230 693.000001" height="924" preserveAspectRatio="xMidYMid meet" version="1.0"><defs><g/><clipPath id="dff588c0fe"><path d="M 259.296875 244.601562 L 393.324219 244.601562 L 393.324219 378.628906 L 259.296875 378.628906 Z M 259.296875 244.601562 " clip-rule="nonzero"/></clipPath><clipPath id="8f0099584a"><path d="M 70.089844 304.386719 L 116.300781 304.386719 L 116.300781 378.625 L 70.089844 378.625 Z M 70.089844 304.386719 " clip-rule="nonzero"/></clipPath><clipPath id="d383f79790"><path d="M 393.324219 171.136719 L 524.929688 171.136719 L 524.929688 244.601562 L 393.324219 244.601562 Z M 393.324219 171.136719 " clip-rule="nonzero"/></clipPath><clipPath id="c573687572"><path d="M 176.085938 161.390625 L 259.296875 161.390625 L 259.296875 244.605469 L 176.085938 244.605469 Z M 176.085938 161.390625 " clip-rule="nonzero"/></clipPath><clipPath id="41f80654df"><path d="M 176.085938 304.386719 L 217.691406 304.386719 L 217.691406 345.996094 L 176.085938 345.996094 Z M 176.085938 304.386719 " clip-rule="nonzero"/></clipPath><clipPath id="708b4d67d6"><path d="M 116.296875 161.386719 L 157.902344 161.386719 L 157.902344 202.992188 L 116.296875 202.992188 Z M 116.296875 161.386719 " clip-rule="nonzero"/></clipPath><clipPath id="58ca634317"><path d="M 116.296875 244.601562 L 176.085938 244.601562 L 176.085938 304.390625 L 116.296875 304.390625 Z M 116.296875 244.601562 " clip-rule="nonzero"/></clipPath><clipPath id="e9ab433c9d"><path d="M 74.6875 202.992188 L 116.296875 202.992188 L 116.296875 244.597656 L 74.6875 244.597656 Z M 74.6875 202.992188 " clip-rule="nonzero"/></clipPath><clipPath id="08e65b2742"><path d="M 176.085938 378.628906 L 259.296875 378.628906 L 259.296875 461.84375 L 176.085938 461.84375 Z M 176.085938 378.628906 " clip-rule="nonzero"/></clipPath></defs><g clip-path="url(#dff588c0fe)"><path fill="#009fb7" d="M 259.296875 378.628906 L 259.296875 244.601562 L 393.324219 244.601562 L 393.324219 378.628906 Z M 259.296875 378.628906 " fill-opacity="1" fill-rule="nonzero"/></g><g clip-path="url(#8f0099584a)"><path fill="#0a4d58" d="M 70.089844 378.625 L 70.089844 304.4375 L 116.300781 304.4375 L 116.300781 378.625 Z M 70.089844 378.625 " fill-opacity="1" fill-rule="nonzero"/></g><g clip-path="url(#d383f79790)"><path fill="#0a3036" d="M 393.324219 244.601562 L 393.324219 171.136719 L 525.046875 171.136719 L 525.046875 244.601562 Z M 393.324219 244.601562 " fill-opacity="1" fill-rule="nonzero"/></g><g clip-path="url(#c573687572)"><path fill="#0a4d58" d="M 176.085938 244.605469 L 176.085938 161.390625 L 259.296875 161.390625 L 259.296875 244.605469 Z M 176.085938 244.605469 " fill-opacity="1" fill-rule="nonzero"/></g><g clip-path="url(#41f80654df)"><path fill="#009fb7" d="M 176.085938 345.996094 L 176.085938 304.386719 L 217.691406 304.386719 L 217.691406 345.996094 Z M 176.085938 345.996094 " fill-opacity="1" fill-rule="nonzero"/></g><g clip-path="url(#708b4d67d6)"><path fill="#08b8d2" d="M 116.296875 202.992188 L 116.296875 161.386719 L 157.902344 161.386719 L 157.902344 202.992188 Z M 116.296875 202.992188 " fill-opacity="1" fill-rule="nonzero"/></g><g clip-path="url(#58ca634317)"><path fill="#08b8d2" d="M 116.296875 304.390625 L 116.296875 244.601562 L 176.085938 244.601562 L 176.085938 304.390625 Z M 116.296875 304.390625 " fill-opacity="1" fill-rule="nonzero"/></g><g clip-path="url(#e9ab433c9d)"><path fill="#009fb7" d="M 74.6875 244.597656 L 74.6875 202.992188 L 116.296875 202.992188 L 116.296875 244.597656 Z M 74.6875 244.597656 " fill-opacity="1" fill-rule="nonzero"/></g><g clip-path="url(#08e65b2742)"><path fill="#057d8f" d="M 176.085938 461.84375 L 176.085938 378.628906 L 259.296875 378.628906 L 259.296875 461.84375 Z M 176.085938 461.84375 " fill-opacity="1" fill-rule="nonzero"/></g><g fill="#009fb7" fill-opacity="1"><g transform="translate(427.388386, 464.704454)"><g><path d="M 224.09375 -207.84375 L 224.09375 0 L 176.03125 0 L 176.03125 -124.640625 L 140.5625 -39.78125 L 98.78125 -39.78125 L 63.984375 -124.640625 L 63.984375 0 L 15.90625 0 L 15.90625 -207.84375 L 78.5625 -207.84375 L 120.671875 -103.09375 L 163.765625 -207.84375 Z M 224.09375 -207.84375 "/></g></g></g><g fill="#009fb7" fill-opacity="1"><g transform="translate(654.466597, 464.704454)"><g><path d="M 54.03125 3.3125 C 37.238281 3.3125 24.914062 -0.882812 17.0625 -9.28125 C 9.21875 -17.675781 5.296875 -30.9375 5.296875 -49.0625 C 5.296875 -67.625 9.992188 -80.660156 19.390625 -88.171875 C 28.785156 -95.691406 44.972656 -99.453125 67.953125 -99.453125 C 73.253906 -99.453125 78.722656 -99.175781 84.359375 -98.625 C 89.992188 -98.070312 94.914062 -97.351562 99.125 -96.46875 L 99.125 -108.40625 C 99.125 -113.707031 96.859375 -117.628906 92.328125 -120.171875 C 87.796875 -122.710938 80.890625 -123.984375 71.609375 -123.984375 C 60.992188 -123.984375 51.539062 -123.707031 43.25 -123.15625 C 34.96875 -122.601562 27.398438 -121.660156 20.546875 -120.328125 L 20.546875 -161.109375 C 28.722656 -163.097656 38.226562 -164.585938 49.0625 -165.578125 C 59.894531 -166.578125 72.492188 -167.078125 86.859375 -167.078125 C 107.179688 -167.078125 122.59375 -162.546875 133.09375 -153.484375 C 143.59375 -144.421875 148.84375 -131.050781 148.84375 -113.375 L 148.84375 0 L 102.4375 0 L 100.78125 -13.921875 L 99.78125 -13.921875 C 92.925781 -8.617188 85.410156 -4.421875 77.234375 -1.328125 C 69.054688 1.765625 61.320312 3.3125 54.03125 3.3125 Z M 74.59375 -66.625 C 65.75 -66.625 59.78125 -65.6875 56.6875 -63.8125 C 53.59375 -61.9375 52.046875 -58.015625 52.046875 -52.046875 C 52.046875 -46.523438 53.316406 -42.710938 55.859375 -40.609375 C 58.398438 -38.503906 62.875 -37.453125 69.28125 -37.453125 C 74.144531 -37.453125 79.226562 -38.113281 84.53125 -39.4375 C 89.832031 -40.769531 94.695312 -42.429688 99.125 -44.421875 L 99.125 -64.640625 C 96.46875 -65.304688 93.148438 -65.800781 89.171875 -66.125 C 85.191406 -66.457031 80.332031 -66.625 74.59375 -66.625 Z M 74.59375 -66.625 "/></g></g></g><g fill="#009fb7" fill-opacity="1"><g transform="translate(803.973518, 464.704454)"><g><path d="M 63.984375 0 L 14.25 0 L 14.25 -163.765625 L 60.671875 -163.765625 L 62.328125 -151.15625 L 62.984375 -151.15625 C 70.941406 -156.019531 79.0625 -159.722656 87.34375 -162.265625 C 95.632812 -164.804688 103.425781 -166.078125 110.71875 -166.078125 L 113.375 -166.078125 L 113.375 -118.015625 C 111.382812 -118.453125 109.226562 -118.726562 106.90625 -118.84375 C 104.582031 -118.957031 101.65625 -119.015625 98.125 -119.015625 C 91.71875 -119.015625 85.640625 -118.625 79.890625 -117.84375 C 74.140625 -117.070312 68.835938 -115.914062 63.984375 -114.375 Z M 63.984375 0 "/></g></g></g><g fill="#009fb7" fill-opacity="1"><g transform="translate(908.727824, 464.704454)"><g><path d="M 135.921875 -50.0625 L 135.921875 -8.953125 C 130.609375 -5.640625 121.984375 -2.765625 110.046875 -0.328125 C 98.117188 2.097656 85.859375 3.3125 73.265625 3.3125 C 49.390625 3.3125 32.644531 -3.039062 23.03125 -15.75 C 13.425781 -28.457031 8.625 -50.5 8.625 -81.875 C 8.625 -113.257812 14.8125 -135.304688 27.1875 -148.015625 C 39.5625 -160.722656 61.21875 -167.078125 92.15625 -167.078125 C 99.664062 -167.078125 106.40625 -166.910156 112.375 -166.578125 C 118.34375 -166.242188 124.753906 -165.632812 131.609375 -164.75 L 131.609375 -120.671875 C 120.773438 -121.546875 112.925781 -122.039062 108.0625 -122.15625 C 103.207031 -122.269531 97.90625 -122.328125 92.15625 -122.328125 C 76.90625 -122.328125 67.457031 -120.171875 63.8125 -115.859375 C 60.164062 -111.546875 58.34375 -100.21875 58.34375 -81.875 C 58.34375 -65.300781 59.832031 -54.691406 62.8125 -50.046875 C 65.800781 -45.410156 72.707031 -43.09375 83.53125 -43.09375 C 92.375 -43.09375 101.601562 -43.753906 111.21875 -45.078125 C 120.832031 -46.410156 129.066406 -48.070312 135.921875 -50.0625 Z M 135.921875 -50.0625 "/></g></g></g><g fill="#009fb7" fill-opacity="1"><g transform="translate(1038.013213, 464.704454)"><g><path d="M 54.03125 3.3125 C 37.238281 3.3125 24.914062 -0.882812 17.0625 -9.28125 C 9.21875 -17.675781 5.296875 -30.9375 5.296875 -49.0625 C 5.296875 -67.625 9.992188 -80.660156 19.390625 -88.171875 C 28.785156 -95.691406 44.972656 -99.453125 67.953125 -99.453125 C 73.253906 -99.453125 78.722656 -99.175781 84.359375 -98.625 C 89.992188 -98.070312 94.914062 -97.351562 99.125 -96.46875 L 99.125 -108.40625 C 99.125 -113.707031 96.859375 -117.628906 92.328125 -120.171875 C 87.796875 -122.710938 80.890625 -123.984375 71.609375 -123.984375 C 60.992188 -123.984375 51.539062 -123.707031 43.25 -123.15625 C 34.96875 -122.601562 27.398438 -121.660156 20.546875 -120.328125 L 20.546875 -161.109375 C 28.722656 -163.097656 38.226562 -164.585938 49.0625 -165.578125 C 59.894531 -166.578125 72.492188 -167.078125 86.859375 -167.078125 C 107.179688 -167.078125 122.59375 -162.546875 133.09375 -153.484375 C 143.59375 -144.421875 148.84375 -131.050781 148.84375 -113.375 L 148.84375 0 L 102.4375 0 L 100.78125 -13.921875 L 99.78125 -13.921875 C 92.925781 -8.617188 85.410156 -4.421875 77.234375 -1.328125 C 69.054688 1.765625 61.320312 3.3125 54.03125 3.3125 Z M 74.59375 -66.625 C 65.75 -66.625 59.78125 -65.6875 56.6875 -63.8125 C 53.59375 -61.9375 52.046875 -58.015625 52.046875 -52.046875 C 52.046875 -46.523438 53.316406 -42.710938 55.859375 -40.609375 C 58.398438 -38.503906 62.875 -37.453125 69.28125 -37.453125 C 74.144531 -37.453125 79.226562 -38.113281 84.53125 -39.4375 C 89.832031 -40.769531 94.695312 -42.429688 99.125 -44.421875 L 99.125 -64.640625 C 96.46875 -65.304688 93.148438 -65.800781 89.171875 -66.125 C 85.191406 -66.457031 80.332031 -66.625 74.59375 -66.625 Z M 74.59375 -66.625 "/></g></g></g></svg>